<?xml version="1.0" standalone="no"?>
<svg xmlns:xlink="http://www.w3.org/1999/xlink" id="wave" style="transform:rotate(180deg); transition: 0.3s" viewBox="0 0 1440 490" version="1.1" xmlns="http://www.w3.org/2000/svg"><defs><linearGradient id="sw-gradient-0" x1="0" x2="0" y1="1" y2="0"><stop stop-color="rgba(243, 106, 62, 1)" offset="0%"/><stop stop-color="rgba(255, 179, 11, 1)" offset="100%"/></linearGradient></defs><path style="transform:translate(0, 0px); opacity:1" fill="url(#sw-gradient-0)" d="M0,441L34.3,424.7C68.6,408,137,376,206,326.7C274.3,278,343,212,411,204.2C480,196,549,245,617,253.2C685.7,261,754,229,823,228.7C891.4,229,960,261,1029,236.8C1097.1,212,1166,131,1234,114.3C1302.9,98,1371,147,1440,212.3C1508.6,278,1577,359,1646,383.8C1714.3,408,1783,376,1851,343C1920,310,1989,278,2057,253.2C2125.7,229,2194,212,2263,236.8C2331.4,261,2400,327,2469,310.3C2537.1,294,2606,196,2674,155.2C2742.9,114,2811,131,2880,155.2C2948.6,180,3017,212,3086,253.2C3154.3,294,3223,343,3291,343C3360,343,3429,294,3497,236.8C3565.7,180,3634,114,3703,106.2C3771.4,98,3840,147,3909,155.2C3977.1,163,4046,131,4114,163.3C4182.9,196,4251,294,4320,334.8C4388.6,376,4457,359,4526,294C4594.3,229,4663,114,4731,130.7C4800,147,4869,294,4903,367.5L4937.1,441L4937.1,490L4902.9,490C4868.6,490,4800,490,4731,490C4662.9,490,4594,490,4526,490C4457.1,490,4389,490,4320,490C4251.4,490,4183,490,4114,490C4045.7,490,3977,490,3909,490C3840,490,3771,490,3703,490C3634.3,490,3566,490,3497,490C3428.6,490,3360,490,3291,490C3222.9,490,3154,490,3086,490C3017.1,490,2949,490,2880,490C2811.4,490,2743,490,2674,490C2605.7,490,2537,490,2469,490C2400,490,2331,490,2263,490C2194.3,490,2126,490,2057,490C1988.6,490,1920,490,1851,490C1782.9,490,1714,490,1646,490C1577.1,490,1509,490,1440,490C1371.4,490,1303,490,1234,490C1165.7,490,1097,490,1029,490C960,490,891,490,823,490C754.3,490,686,490,617,490C548.6,490,480,490,411,490C342.9,490,274,490,206,490C137.1,490,69,490,34,490L0,490Z"/><defs><linearGradient id="sw-gradient-1" x1="0" x2="0" y1="1" y2="0"><stop stop-color="rgba(243, 106, 62, 1)" offset="0%"/><stop stop-color="rgba(255, 179, 11, 1)" offset="100%"/></linearGradient></defs><path style="transform:translate(0, 50px); opacity:0.9" fill="url(#sw-gradient-1)" d="M0,245L34.3,236.8C68.6,229,137,212,206,220.5C274.3,229,343,261,411,228.7C480,196,549,98,617,65.3C685.7,33,754,65,823,89.8C891.4,114,960,131,1029,155.2C1097.1,180,1166,212,1234,212.3C1302.9,212,1371,180,1440,147C1508.6,114,1577,82,1646,73.5C1714.3,65,1783,82,1851,98C1920,114,1989,131,2057,147C2125.7,163,2194,180,2263,187.8C2331.4,196,2400,196,2469,212.3C2537.1,229,2606,261,2674,261.3C2742.9,261,2811,229,2880,187.8C2948.6,147,3017,98,3086,138.8C3154.3,180,3223,310,3291,359.3C3360,408,3429,376,3497,359.3C3565.7,343,3634,343,3703,343C3771.4,343,3840,343,3909,302.2C3977.1,261,4046,180,4114,196C4182.9,212,4251,327,4320,375.7C4388.6,425,4457,408,4526,383.8C4594.3,359,4663,327,4731,277.7C4800,229,4869,163,4903,130.7L4937.1,98L4937.1,490L4902.9,490C4868.6,490,4800,490,4731,490C4662.9,490,4594,490,4526,490C4457.1,490,4389,490,4320,490C4251.4,490,4183,490,4114,490C4045.7,490,3977,490,3909,490C3840,490,3771,490,3703,490C3634.3,490,3566,490,3497,490C3428.6,490,3360,490,3291,490C3222.9,490,3154,490,3086,490C3017.1,490,2949,490,2880,490C2811.4,490,2743,490,2674,490C2605.7,490,2537,490,2469,490C2400,490,2331,490,2263,490C2194.3,490,2126,490,2057,490C1988.6,490,1920,490,1851,490C1782.9,490,1714,490,1646,490C1577.1,490,1509,490,1440,490C1371.4,490,1303,490,1234,490C1165.7,490,1097,490,1029,490C960,490,891,490,823,490C754.3,490,686,490,617,490C548.6,490,480,490,411,490C342.9,490,274,490,206,490C137.1,490,69,490,34,490L0,490Z"/><defs><linearGradient id="sw-gradient-2" x1="0" x2="0" y1="1" y2="0"><stop stop-color="rgba(243, 106, 62, 1)" offset="0%"/><stop stop-color="rgba(255, 179, 11, 1)" offset="100%"/></linearGradient></defs><path style="transform:translate(0, 100px); opacity:0.8" fill="url(#sw-gradient-2)" d="M0,98L34.3,114.3C68.6,131,137,163,206,155.2C274.3,147,343,98,411,106.2C480,114,549,180,617,228.7C685.7,278,754,310,823,334.8C891.4,359,960,376,1029,326.7C1097.1,278,1166,163,1234,98C1302.9,33,1371,16,1440,49C1508.6,82,1577,163,1646,196C1714.3,229,1783,212,1851,212.3C1920,212,1989,229,2057,245C2125.7,261,2194,278,2263,294C2331.4,310,2400,327,2469,351.2C2537.1,376,2606,408,2674,359.3C2742.9,310,2811,180,2880,130.7C2948.6,82,3017,114,3086,130.7C3154.3,147,3223,147,3291,155.2C3360,163,3429,180,3497,179.7C3565.7,180,3634,163,3703,138.8C3771.4,114,3840,82,3909,65.3C3977.1,49,4046,49,4114,114.3C4182.9,180,4251,310,4320,351.2C4388.6,392,4457,343,4526,277.7C4594.3,212,4663,131,4731,81.7C4800,33,4869,16,4903,8.2L4937.1,0L4937.1,490L4902.9,490C4868.6,490,4800,490,4731,490C4662.9,490,4594,490,4526,490C4457.1,490,4389,490,4320,490C4251.4,490,4183,490,4114,490C4045.7,490,3977,490,3909,490C3840,490,3771,490,3703,490C3634.3,490,3566,490,3497,490C3428.6,490,3360,490,3291,490C3222.9,490,3154,490,3086,490C3017.1,490,2949,490,2880,490C2811.4,490,2743,490,2674,490C2605.7,490,2537,490,2469,490C2400,490,2331,490,2263,490C2194.3,490,2126,490,2057,490C1988.6,490,1920,490,1851,490C1782.9,490,1714,490,1646,490C1577.1,490,1509,490,1440,490C1371.4,490,1303,490,1234,490C1165.7,490,1097,490,1029,490C960,490,891,490,823,490C754.3,490,686,490,617,490C548.6,490,480,490,411,490C342.9,490,274,490,206,490C137.1,490,69,490,34,490L0,490Z"/></svg>